<svg xmlns="http://www.w3.org/2000/svg" viewBox="0 0 55.48 80.82"><defs><style>.cls-1{fill:#e5dcf7;}</style></defs><g id="Capa_2" data-name="Capa 2"><g id="detalles_peq" data-name="detalles peq"><path class="cls-1" d="M20,3.13c2.52,12-1.77,24.94-10.32,33.57A34.78,34.78,0,0,1,1.28,43C-1.55,44.48,1,48.8,3.81,47.28c12.4-6.64,20.47-19.83,21.74-33.72A39,39,0,0,0,24.82,1.8C24.16-1.35,19.34,0,20,3.13Z"/><path class="cls-1" d="M20.46,3.11c2.52,7.73,5.17,15.63,10.46,22,4.73,5.66,11.92,9.81,19.46,9.34,3.2-.21,3.22-5.21,0-5-6.45.4-12.24-3.28-16.17-8.17-4.51-5.6-6.74-12.71-8.93-19.44-1-3-5.82-1.75-4.82,1.32Z"/><path class="cls-1" d="M51.24,31A52.85,52.85,0,0,0,39.9,52.54a54.54,54.54,0,0,0-1.65,12,50.94,50.94,0,0,0,.22,5.92c.11,1.14.26,2.27.44,3.4a9,9,0,0,1,.37,2.32l.65-1.1-.22.23,1.11-.65-.21.07h1.33l.22.07.9.89.07.24v1.33l0-.15L42,78.59l.17-.09c2.84-1.5.32-5.82-2.53-4.32-2.28,1.21-1.59,4.64.75,5.31,2.51.72,4.15-1.7,3.85-4-.22-1.7-.62-3.37-.79-5.08a48.47,48.47,0,0,1,4.7-26,46.45,46.45,0,0,1,6.6-10,2.56,2.56,0,0,0,0-3.54,2.52,2.52,0,0,0-3.53,0Z"/><path class="cls-1" d="M3.16,48.89c3.31-.68,6.46,1.58,8.81,3.65,3.16,2.77,6,5.92,9,8.9s6.27,6.15,9.24,9.38c2.57,2.8,4.54,6.09,7.19,8.83,2.24,2.31,5.78-1.22,3.54-3.54-2.82-2.91-4.87-6.44-7.68-9.34-3.35-3.46-6.77-6.86-10.16-10.28C17.48,50.84,10.83,42.22,1.83,44.07A2.52,2.52,0,0,0,.08,47.14a2.55,2.55,0,0,0,3.08,1.75Z"/><path class="cls-1" d="M36.72,77.15c.37.09.6.36.56.56l4.57-.6c-3.84-6.53-4.42-14.36-3.07-21.7A61.84,61.84,0,0,1,42,44.26a27.42,27.42,0,0,1,2.11-4.57c.4-.62,1.38-1.9,2-1.81l-.6-4.57a12.58,12.58,0,0,1-13-1c-2.11-1.61-1.81-4.41-2.32-6.78a30.3,30.3,0,0,0-3.14-8.21l-4.32,2.53C28.07,26.81,33.84,34,42.51,36.67l.66-4.91a10.28,10.28,0,0,0-7,2.89c-1.28,1.22-.76,3.84,1.1,4.18A3.11,3.11,0,0,1,40,42.51c-.36,2.62-1.69,4.91-1.67,7.63s4.25,3.46,4.91.66a45.18,45.18,0,0,0,1.23-11.17L42.6,42l3.6-1.5-2.82-3.67a60.62,60.62,0,0,0-6,17A2.51,2.51,0,0,0,42,55.82a8.22,8.22,0,0,0,1.29-4.52,2.49,2.49,0,0,0-2.16-2.46,2.57,2.57,0,0,0-2.75,1.79,48.19,48.19,0,0,0-2.88,9.69c-.37,2,1.7,4.12,3.67,2.83a4.12,4.12,0,0,0,2-3.75,2.52,2.52,0,0,0-4.66-1.26L35.27,59.9l3.93-.51-2.57-3.14c-1.07-1.31-3.14-.73-3.93.51a13.93,13.93,0,0,0-2.08,6.32l4.91-.66-.63-1.55a2.5,2.5,0,0,0-4.91.67,11.53,11.53,0,0,0,.45,3.5l3.67-2.82A6.74,6.74,0,0,1,32,59.58L27.67,62.1l2.41,4.15a2.54,2.54,0,0,0,3.42.9,2.57,2.57,0,0,0,.9-3.42,30.53,30.53,0,0,1-1.75-18.56H27.83l2,6.83c.84,2.86,4.61,2,4.91-.66l1.49-13.47h-5a92.62,92.62,0,0,1-.49,17.22h5Q34.57,45.1,34,35a2.5,2.5,0,0,0-5,0,172.55,172.55,0,0,1-2.18,17.85l4.91.67q-.68-9.9-.6-19.82c0-2.77-4.29-3.47-4.91-.67L22.57,49.49l4.91.67A133.22,133.22,0,0,1,28.63,29.7a2.46,2.46,0,0,0-2.16-2.46A2.52,2.52,0,0,0,23.72,29L18.53,44.88l4.82,1.33A136.63,136.63,0,0,1,28,26.77c.85-2.68-3.23-4.43-4.57-1.92l-4.25,8c-1.35,2.54-3.38,5.32-3.64,8.25s1.8,5.51,3.27,7.88l5,8a2.5,2.5,0,1,0,4.32-2.52l-1.35-3L22.41,54a18.14,18.14,0,0,0,4.85,6.4c1.27,1.06,3.86.93,4.18-1.11a60.5,60.5,0,0,0,.13-17.57L26.75,43l1.64,9L33,50.13a21.79,21.79,0,0,1-1.42-20.47L27,29.06a4.2,4.2,0,0,1-.73,3.25c-1.33,2,1.37,4.88,3.42,3.42a11.35,11.35,0,0,0,4.06-5.17,2.51,2.51,0,0,0-1.15-2.83,2.59,2.59,0,0,0-3,.39A43.34,43.34,0,0,0,21.15,38.6l4.57,1.93a43.78,43.78,0,0,0,3-14c.15-2.82-4.24-3.4-4.91-.67L21.18,36.7a5.6,5.6,0,0,0-.35,1.38l.72-.3c.2.07.15,0-.17,0A1.88,1.88,0,0,0,21,37.6c-1.57-.58-2.73-1.09-4.45-.8l2.83,3.68,3.38-6.25c1.31-2.41-2-5.23-3.92-3L11.86,39a2.55,2.55,0,0,0,0,3.53L15,46.11l1.59,1.79A5.77,5.77,0,0,0,17.57,49l.08.09c-.2-.83,0-1.37.56-1.63.29-.14.33-.17.12-.1s-.17.05,0,0c-.1,0-.64,0-.56,0a13.15,13.15,0,0,1-1.67-.47l-4.9-1.48.6,4.57c1.11-.72,3-1.85,4.25-1.43a1.72,1.72,0,0,1,.83.71c.06.11.12.74.13.47,0-.09-.08.12-.22.31a2.52,2.52,0,0,0,.9,3.42,2.56,2.56,0,0,0,3.42-.9c1.95-2.64.48-6.33-2-8-3.06-2.06-7-.7-9.82,1.12a2.53,2.53,0,0,0,.6,4.57c2.17.66,4.38,1.53,6.61,2,1.88.36,4.17.15,5.39-1.52,1.65-2.29,0-4.41-1.54-6.15L15.39,39v3.53l6.94-7.8-3.93-3L15,38a2.53,2.53,0,0,0,2.82,3.67c-.36.07.16.13.3.18l.73.3a6.78,6.78,0,0,0,2.41.67,4.39,4.39,0,0,0,4.31-3.22c.66-1.88,1-3.93,1.47-5.86l1.6-6.51-4.91-.66A39.53,39.53,0,0,1,20.9,39.2c-1.07,2.66,3.19,4.32,4.57,1.92a38.84,38.84,0,0,1,7.61-9.46L28.9,29.23a5.28,5.28,0,0,1-1.76,2.18l3.42,3.42a9.33,9.33,0,0,0,1.23-7.1c-.42-2-3.67-2.53-4.57-.6a27,27,0,0,0,1.42,25.52c1.55,2.49,5.06.81,4.57-1.93l-1.64-9A2.51,2.51,0,0,0,28.5,40,2.56,2.56,0,0,0,26.75,43a51.73,51.73,0,0,1-.14,14.91l4.18-1.1a14.9,14.9,0,0,1-4.07-5.39,2.52,2.52,0,0,0-3.42-.89A2.56,2.56,0,0,0,22.41,54l1.34,3,4.32-2.52-4.33-7c-.74-1.19-1.49-2.38-2.23-3.58-.49-.8-1.18-1.71-1-2.7a10.43,10.43,0,0,1,1.35-2.84l2-3.66,3.9-7.32-4.57-1.93a136.63,136.63,0,0,0-4.61,19.44c-.5,3.13,3.8,4.45,4.82,1.33l5.19-15.85-4.91-.66a133.22,133.22,0,0,0-1.15,20.46c.06,2.73,4.28,3.5,4.91.66L31,34.4l-4.91-.66q-.07,9.91.6,19.82A2.51,2.51,0,0,0,28.85,56a2.47,2.47,0,0,0,2.75-1.79A184.28,184.28,0,0,0,34,35H29q.62,10.05,1.78,20.05a2.5,2.5,0,0,0,5,0,92.62,92.62,0,0,0,.49-17.22,2.5,2.5,0,0,0-5,0L29.74,51.34l4.91-.67-2-6.83c-.66-2.27-4.27-2.49-4.82,0a36.31,36.31,0,0,0,2.25,22.41l4.32-2.52L32,59.58c-1.63-2.82-5.72-.34-4.32,2.52a11.73,11.73,0,0,0,3.92,4.44c1.82,1.28,4.24-.84,3.67-2.83A6.88,6.88,0,0,1,35,61.54l-4.91.66.63,1.55a2.51,2.51,0,0,0,4.91-.67,8.43,8.43,0,0,1,1.4-3.8l-3.93.5,2.57,3.15c1.1,1.34,3.1.68,3.93-.51l1.23-1.76L36.16,59.4a.93.93,0,0,0,.45-.57l3.68,2.82A48.19,48.19,0,0,1,43.17,52l-4.91-.66a3.25,3.25,0,0,1-.61,2l4.57,1.93A56.54,56.54,0,0,1,47.7,39.39c.9-1.71-.66-4.57-2.83-3.67l-3.6,1.5a2.58,2.58,0,0,0-1.83,2.41,39.73,39.73,0,0,1-1,9.84l4.91.67c0-3.21,2-6,1.64-9.29A8,8,0,0,0,38.59,34l1.11,4.18a5,5,0,0,1,3.47-1.43,2.51,2.51,0,0,0,.67-4.91c-7.29-2.24-12.31-8.67-16.76-14.49a2.6,2.6,0,0,0-3.43-.89,2.53,2.53,0,0,0-.89,3.42,26,26,0,0,1,2.95,8.74,13.07,13.07,0,0,0,1.35,5A10.47,10.47,0,0,0,30.47,37,17.73,17.73,0,0,0,48,37.63c1.79-.92,1.54-4.25-.6-4.57-4.63-.69-7.33,3-9,6.81a67.92,67.92,0,0,0-4.25,12.9c-1.9,9-1.46,18.73,3.32,26.86,1,1.76,4.13,1.57,4.57-.59a5.61,5.61,0,0,0-4.05-6.71c-3.12-.76-4.46,4.06-1.33,4.82Z"/></g></g></svg>